Coordinates
version=1
nRows=16
nColumns=36
inDegrees=yes

Units are S.I. units (second, meters, Newtons, ...)
If the header above contains a line with 'inDegrees', this indicates whether rotational values are in degrees (yes) or radians (no).

endheader
time	pelvis_tilt	pelvis_list	pelvis_rotation	pelvis_tx	pelvis_ty	pelvis_tz	hip_flexion_r	hip_adduction_r	hip_rotation_r	knee_angle_r	knee_angle_r_beta	ankle_angle_r	subtalar_angle_r	mtp_angle_r	hip_flexion_l	hip_adduction_l	hip_rotation_l	knee_angle_l	knee_angle_l_beta	ankle_angle_l	subtalar_angle_l	mtp_angle_l	lumbar_extension	lumbar_bending	lumbar_rotation	arm_flex_r	arm_add_r	arm_rot_r	elbow_flex_r	pro_sup_r	arm_flex_l	arm_add_l	arm_rot_l	elbow_flex_l	pro_sup_l
      2.20000000	     -2.72536186	     -4.32404746	    -14.52063015	      0.56224078	      0.79683877	      0.17240879	     30.86527145	      8.27739504	     -7.44425591	     69.04336587	      1.20503406	     35.67301501	      2.94065612	     -7.49999987	     58.59639917	    -10.54486494	      8.71250785	     36.92688644	      0.64449575	     -4.72218800	     -0.54783140	     -7.49999987	     -7.32439944	     12.21764654	     -2.80721747	     36.01241463	     -8.14596629	     63.72920368	    124.56360710	     88.79893996	     22.39437078	     -3.03933343	     61.60597895	    133.16774407	     99.28471927
      2.21666670	     -2.84420757	     -4.49724090	    -14.41785669	      0.56120275	      0.79156940	      0.17239548	     31.41434154	      8.50410645	     -7.64536103	     70.15453421	      1.22442761	     35.59823056	      2.51024496	     -7.49999987	     59.11551535	    -10.54840848	      9.52081401	     36.66244360	      0.63988035	     -5.07802088	     -0.70417793	     -7.49999987	     -7.59024931	     12.53676059	     -3.31781439	     36.64687044	     -8.07182929	     64.12258940	    124.86130285	     88.63299293	     22.83325646	     -3.13018356	     62.81453064	    133.72980480	     99.23125579
      2.23333330	     -2.86901504	     -4.54023354	    -14.68478795	      0.56105075	      0.78898260	      0.17347591	     31.77052205	      8.81967158	     -7.44546148	     70.96693908	      1.23860675	     36.16453331	      2.07034276	     -7.49999987	     59.36580815	    -10.81394190	      9.97996268	     36.19096946	      0.63165158	     -5.22601409	     -0.51444938	     -7.49999987	     -7.88221948	     12.55896280	     -3.32297265	     36.83876745	     -8.01820853	     64.05049881	    124.46474414	     88.04228661	     23.09926808	     -3.04109339	     62.92989911	    133.60800927	     98.64009673
      2.25000000	     -3.13830070	     -4.92800602	    -14.83048282	      0.56086223	      0.78327084	      0.17304128	     32.38653293	      9.28020829	     -7.68465585	     71.83918755	      1.25383035	     36.48600422	      1.74838571	     -7.49999987	     60.29001018	    -11.07218051	     10.90033986	     36.40292348	      0.63535087	     -5.78079195	     -1.10842140	     -7.49999987	     -8.44253234	     13.35485158	     -3.72017237	     37.75080193	     -8.04477179	     65.03500955	    124.84761332	     88.04789954	     23.44246342	     -3.72539228	     64.48973256	    134.62507283	     99.24136119
      2.26666670	     -3.06545777	     -5.17352658	    -14.78396578	      0.56641955	      0.78375797	      0.17710799	     31.87906392	      9.78641566	     -7.53255115	     71.94613880	      1.25569701	     36.81729515	      1.11441614	     -7.49999987	     60.33802039	    -11.14279450	     11.59984961	     36.20785890	      0.63194635	     -6.03332015	     -1.92803414	     -7.49999987	     -8.75985474	     13.63354192	     -4.21024944	     37.88066495	     -8.12752112	     64.45652539	    124.00125793	     88.09853862	     23.61222933	     -4.23159110	     65.45776337	    134.86384347	     99.52456116
      2.28333330	     -3.21605001	     -5.50529186	    -14.99097744	      0.55986925	      0.78029291	      0.17312361	     32.55368262	     10.28650399	     -7.46123216	     72.86693680	      1.27176796	     37.25518059	      0.65295121	     -7.49999987	     60.99760478	    -11.41115132	     12.14439972	     36.40874514	      0.63545248	     -5.80419798	     -1.69959601	     -7.49999987	     -9.60260683	     14.30133824	     -4.43879637	     38.62426477	     -8.32106102	     64.19088379	    123.48950784	     88.19725683	     24.42933522	     -4.34207925	     67.27218009	    136.03842482	     99.93184894
      2.30000000	     -3.20141360	     -5.85218363	    -14.89191502	      0.56551974	      0.78082647	      0.17712190	     32.29893610	     10.79680821	     -7.51445128	     72.90849151	      1.27249323	     37.65500086	      0.47261276	     -7.49999987	     60.96015085	    -11.46064775	     12.87652629	     36.00037178	      0.62832502	     -6.18467298	     -2.14029810	     -7.49999987	    -10.12511245	     14.75430421	     -4.99773257	     38.34377147	     -8.36877019	     63.59701096	    122.86044024	     88.29466660	     24.28619482	     -4.61191257	     69.04272460	    135.61891651	    100.47147766
      2.31666670	     -3.36000287	     -6.14544173	    -15.27063286	      0.55884283	      0.77675238	      0.17884608	     32.70066944	     11.45112951	     -7.29770716	     73.26465501	      1.27870946	     37.71454790	      0.40936021	     -7.49999987	     61.37568574	    -11.89189492	     13.54620939	     35.20138689	      0.61438010	     -6.10960724	     -1.76209000	     -7.49999987	    -10.73625275	     15.04785225	     -4.55912487	     38.54172052	     -8.12459718	     63.23784195	    122.60184083	     88.36419262	     24.56574380	     -4.78748282	     69.21642633	    136.05789674	    100.72313841
      2.33333330	     -3.25308771	     -6.34730179	    -15.25540285	      0.56535594	      0.77466483	      0.17722687	     32.88993095	     11.65820364	     -7.36645872	     73.98387764	      1.29126226	     38.00535740	      0.19005773	     -7.49999987	     61.50990640	    -11.91229717	     14.01474717	     34.99157327	      0.61071816	     -5.68355584	     -1.59478171	     -7.49999987	    -10.99912727	     15.21655997	     -4.61918628	     38.40030816	     -8.02407036	     63.42168031	    122.86358702	     88.41613545	     24.74020630	     -4.81528451	     69.07739612	    135.88166034	    100.79649174
      2.35000000	     -3.53780778	     -6.70789035	    -15.35479119	      0.55812101	      0.76754917	      0.18444483	     33.85619800	     12.34394773	     -7.61437552	     74.94947369	      1.30811509	     38.92865403	      0.55764396	     -7.49999987	     62.54039466	    -12.22259225	     15.01197699	     35.34583037	      0.61690112	     -5.03912908	     -0.98891768	     -7.49999987	    -11.08555246	     15.28270300	     -4.27230844	     38.52204991	     -7.79171379	     64.13450833	    123.53245427	     88.64430263	     25.19559178	     -4.86065208	     69.01223240	    136.17787663	    101.02006303
      2.36666670	     -3.78279414	     -6.77239654	    -15.41732415	      0.55863626	      0.76367894	      0.18452784	     34.35521971	     12.72372685	     -7.78438985	     75.65003500	      1.32034219	     39.82903016	      0.87769422	     -7.49999987	     63.36149325	    -12.31393494	     15.66741058	     35.73208867	      0.62364260	     -4.77429930	     -1.09299904	     -7.49999987	    -10.93907480	     15.11717046	     -3.98070485	     38.74892910	     -7.48173626	     63.58030408	    122.78362368	     88.34513914	     25.65463778	     -5.00971343	     67.84319365	    136.25530502	    100.88381009
      2.38333330	     -4.02040058	     -6.53291254	    -15.45528908	      0.56574256	      0.75900766	      0.18208733	     34.74838261	     12.59840796	     -7.79940985	     76.26294279	      1.33103945	     40.85015626	      0.89866056	     -7.49999987	     64.13714998	    -12.05724853	     16.03059610	     36.41924111	      0.63563567	     -4.56810488	     -1.34186806	     -7.49999987	    -10.28414729	     14.80419237	     -4.53313690	     38.49996443	     -7.10704102	     63.99414134	    123.28992222	     88.59488443	     25.60488477	     -5.08776875	     68.40144370	    136.13283458	    101.00401464
      2.40000000	     -4.19277348	     -6.35538358	    -15.37174540	      0.56451512	      0.75899679	      0.18285259	     34.81700823	     12.48600101	     -7.70279644	     76.45021414	      1.33430795	     41.24709345	      0.72416427	     -7.49999987	     64.56578055	    -11.80758113	     16.28825194	     36.67130748	      0.64003506	     -4.74857203	     -1.60614653	     -7.49999987	     -9.86414850	     14.65363347	     -4.61810506	     38.30065150	     -7.38860448	     64.62638242	    123.56314557	     90.54319389	     25.11574331	     -4.78079145	     70.02587169	    135.76023185	    103.45012779
      2.41666670	     -4.27958893	     -6.24313088	    -15.17497222	      0.56487964	      0.75602748	      0.18218911	     34.90786026	     12.29072944	     -7.73051561	     76.67323120	      1.33820033	     41.56282360	      0.78842941	     -7.49999987	     65.04681947	    -11.53942785	     16.65778935	     36.83670886	      0.64292186	     -4.86897482	     -1.78139615	     -7.49999987	     -9.62666016	     14.55776895	     -4.79947182	     38.58149328	     -7.43348841	     64.49538440	    123.65896840	     89.51756767	     24.93128573	     -4.67867516	     71.23594157	    135.81941754	    102.44387977
      2.43333330	     -4.70491193	     -6.17868142	    -15.17210852	      0.56498795	      0.74961587	      0.18256084	     36.01422072	     12.32353425	     -7.87058614	     77.73268388	      1.35669127	     42.21895453	      1.00703944	     -7.49999987	     66.41423599	    -11.36000657	     17.21304153	     37.77551497	      0.65930711	     -4.60861336	     -1.77777801	     -7.49999987	     -9.16835513	     14.55256126	     -4.19673720	     38.93328604	     -7.87877009	     64.34709394	    124.19174557	     91.06050545	     25.05868536	     -4.25181222	     71.99822686	    135.94062394	    103.50783835
      2.45000000	     -4.71088345	     -6.33180583	    -15.24781065	      0.55836726	      0.74924229	      0.18440965	     36.73233251	     12.62337902	     -7.98865156	     78.43086650	      1.36887686	     42.54959026	      1.25539976	     -7.49999987	     67.00060034	    -11.40248284	     17.73941801	     38.41061849	      0.67039176	     -4.65709650	     -1.70758434	     -7.49999987	     -9.53244354	     14.63284793	     -3.47642448	     40.10871732	     -7.66027260	     64.16458968	    123.74017706	     91.13858204	     25.22984755	     -4.14674719	     71.98644105	    136.32643837	    103.49031349
